<?xml version="1.0" standalone="no"?>
<!DOCTYPE svg PUBLIC "-//W3C//DTD SVG 20010904//EN"
 "http://www.w3.org/TR/2001/REC-SVG-20010904/DTD/svg10.dtd">
<svg version="1.0" xmlns="http://www.w3.org/2000/svg"
 width="256.000000pt" height="256.000000pt" viewBox="0 0 256.000000 256.000000"
 preserveAspectRatio="xMidYMid meet">

<g transform="translate(0.000000,256.000000) scale(0.100000,-0.100000)"
fill="#000000" stroke="none">
<path d="M0 1529 l0 -1031 40 36 c22 19 51 38 66 42 84 21 245 -33 313 -104
31 -32 41 -57 70 -162 19 -69 47 -167 63 -218 l29 -92 434 0 433 0 6 27 c3 16
12 93 21 173 20 192 25 221 35 215 14 -9 68 -184 93 -300 23 -109 24 -110 53
-113 l30 -3 13 119 c13 115 13 120 -8 167 -12 27 -33 63 -46 81 -27 35 -31 64
-15 95 14 25 32 24 57 -4 17 -18 27 -63 53 -227 34 -218 39 -243 47 -223 3 7
-5 73 -16 148 -12 74 -21 143 -21 154 0 48 276 99 390 72 41 -9 47 -8 70 14
28 27 77 48 96 41 6 -2 17 -20 24 -40 9 -30 8 -42 -10 -85 -12 -27 -29 -52
-37 -56 -25 -9 -24 -1 2 35 43 59 17 46 -58 -27 -43 -42 -82 -73 -97 -75 -14
-2 -24 -7 -23 -12 5 -17 54 -12 71 8 22 24 121 69 138 62 10 -4 14 -27 14 -81
0 -41 5 -95 12 -120 l12 -45 103 0 103 0 0 310 c0 242 -3 310 -12 310 -7 -1
-29 -9 -48 -18 -34 -17 -35 -19 -50 -112 -10 -60 -23 -108 -37 -130 -13 -19
-27 -59 -33 -90 -6 -30 -15 -71 -19 -90 -9 -34 -9 -34 -10 15 -1 28 -6 56 -12
62 -8 8 -6 19 5 41 21 40 20 89 -3 131 -14 27 -16 40 -8 61 13 34 -3 77 -44
121 -21 23 -29 41 -29 69 l0 37 -57 11 c-32 6 -83 14 -114 17 l-56 7 10 51 c5
29 10 139 12 246 l2 194 27 14 c33 17 34 5 6 -69 -47 -124 -17 -103 93 66 27
42 41 52 92 70 69 25 137 69 202 132 47 44 51 61 29 129 -5 14 2 30 24 53 l30
33 0 297 c0 279 -1 295 -16 265 -9 -18 -20 -33 -24 -33 -5 0 -18 55 -30 123
-12 67 -29 147 -38 177 l-17 55 -1217 3 -1218 2 0 -1031z m1104 388 c-22 -24
-49 -55 -61 -70 -13 -15 -31 -27 -40 -27 -20 -1 -64 -30 -44 -30 7 0 21 5 33
11 29 16 31 7 8 -45 -11 -26 -20 -52 -20 -57 0 -5 22 7 49 26 26 19 68 42 92
51 63 23 164 22 219 -3 l45 -19 -25 -14 c-39 -21 -121 -40 -180 -41 -54 -1
-55 -1 -20 -11 21 -6 92 -8 181 -5 183 8 187 6 171 -79 -7 -32 -13 -84 -15
-114 l-2 -55 -58 -3 c-50 -3 -57 -5 -47 -18 10 -11 9 -14 -5 -14 -27 0 0 -27
33 -33 15 -3 47 -13 72 -22 83 -32 210 -5 334 70 32 19 61 35 64 35 16 0 -109
-115 -153 -141 -68 -39 -49 -37 34 5 76 39 162 113 217 187 38 53 56 59 94 32
22 -16 23 -16 17 1 -4 10 -7 20 -7 22 0 3 -11 9 -25 14 l-25 9 25 47 c14 26
25 53 25 60 0 8 4 14 8 14 11 0 29 -82 38 -165 l6 -60 -69 -86 c-37 -48 -81
-103 -96 -123 -33 -42 -64 -47 -115 -16 -39 24 -43 25 -36 5 8 -20 67 -55 93
-55 26 0 26 0 -5 -61 -24 -48 -24 -52 -8 -70 16 -18 15 -19 -10 -29 -15 -5
-34 -10 -43 -10 -25 0 -93 -22 -93 -30 0 -17 31 -32 55 -26 41 10 30 -11 -38
-78 -74 -73 -209 -165 -321 -221 -101 -49 -165 -56 -224 -26 -66 34 -334 263
-408 348 -85 100 -104 140 -103 223 0 65 0 65 13 30 26 -69 79 -166 127 -231
55 -75 98 -117 60 -59 -78 120 -113 242 -113 400 0 190 20 272 99 394 55 86
103 139 162 177 66 42 80 36 35 -14z m416 -82 c0 -2 -23 -20 -50 -38 l-51 -34
-70 20 c-38 11 -67 22 -65 25 10 9 236 36 236 27z m182 -142 c-46 -99 -176
-276 -180 -247 -3 23 36 107 82 174 26 40 124 150 132 150 2 0 -13 -35 -34
-77z m-162 7 c0 -5 -4 -10 -9 -10 -6 0 -13 5 -16 10 -3 6 1 10 9 10 9 0 16 -4
16 -10z m-745 -691 c31 -38 115 -120 186 -181 71 -60 129 -114 129 -119 0 -12
-52 -79 -62 -79 -3 0 -17 17 -29 38 -30 48 -151 174 -211 218 -42 31 -48 41
-58 92 -7 31 -14 67 -17 80 -3 12 -3 22 0 22 3 0 30 -32 62 -71z m1035 -9 c0
-5 -10 -10 -22 -10 -19 0 -20 2 -8 10 19 13 30 13 30 0z m384 -290 c27 -10 28
-13 24 -59 -4 -42 -3 -48 12 -44 12 3 24 -7 39 -30 42 -68 18 -127 -52 -127
-45 0 -88 17 -95 37 -2 7 15 32 37 55 41 41 55 62 25 37 -10 -8 -55 -13 -142
-14 -102 -1 -147 -7 -230 -28 -56 -15 -107 -27 -111 -27 -9 0 -31 76 -31 108
0 14 12 22 43 31 23 7 51 22 63 32 34 31 144 49 274 44 64 -2 128 -9 144 -15z"/>
<path d="M1000 1496 c0 -27 98 -123 153 -151 28 -14 67 -25 86 -25 54 0 141
12 141 19 0 3 -37 6 -83 7 -100 0 -138 18 -232 105 -43 41 -65 56 -65 45z"/>
<path d="M1537 844 c-13 -13 -7 -24 14 -24 11 0 19 5 17 12 -5 14 -22 21 -31
12z"/>
<path d="M2546 1608 c-8 -32 -6 -273 4 -333 5 -34 8 15 9 153 0 111 -1 202 -3
202 -2 0 -6 -10 -10 -22z"/>
<path d="M395 213 c3 -60 8 -132 11 -160 l5 -53 64 0 64 0 -54 112 c-30 62
-60 134 -67 160 -20 79 -30 55 -23 -59z"/>
<path d="M1497 42 l-29 -37 28 -3 c31 -4 44 11 44 51 0 36 -9 34 -43 -11z"/>
<path d="M2202 44 c-49 -38 -68 -44 -52 -15 19 36 10 43 -15 13 -14 -17 -25
-33 -25 -36 0 -3 18 -6 39 -6 29 0 47 7 71 30 18 17 39 30 47 30 8 0 11 5 8
10 -10 16 -28 10 -73 -26z"/>
</g>
</svg>
